<?xml version="1.0" encoding="UTF-8" standalone="no"?>
<!DOCTYPE svg PUBLIC "-//W3C//DTD SVG 1.1//EN" "http://www.w3.org/Graphics/SVG/1.1/DTD/svg11.dtd">
<svg width="100%" height="100%" viewBox="0 0 400 252" version="1.1" xmlns="http://www.w3.org/2000/svg" xmlns:xlink="http://www.w3.org/1999/xlink" xml:space="preserve" xmlns:serif="http://www.serif.com/" style="fill-rule:evenodd;clip-rule:evenodd;stroke-linejoin:round;stroke-miterlimit:2;">
    <g id="svgg">
        <path id="path0" d="M255.659,96.37C253.562,96.437 249.18,96.356 247.964,101.35C247.936,101.465 247.964,101.35 247.964,101.35L244.081,114.915C244.081,114.915 244.098,114.845 244.081,114.915C242.546,121.018 244.202,123.019 249.388,122.845C249.417,122.844 249.388,122.845 249.388,122.845L279.713,122.845L277.281,132.431L248.386,132.431L249.117,128.808L240.977,128.808C240.977,128.808 239.446,135.746 239.422,135.935C239.167,137.952 239.214,140.695 243.269,140.969C243.348,140.974 244.682,140.975 244.682,140.975L277.281,140.975C277.281,140.975 277.049,140.973 277.281,140.975C283.148,141.042 283.789,140.413 284.926,135.935C285.005,135.623 284.926,135.935 284.926,135.935L288.483,121.46C288.483,121.46 288.46,121.546 288.483,121.46C289.405,117.931 288.532,115.141 284.33,114.915L252.738,114.915L255.659,104.594L284.204,104.594L283.506,108.292L292.061,108.292L292.775,104.594C293.728,99.121 294.92,96.24 288.483,96.37C288.235,96.375 288.483,96.37 288.483,96.37L255.659,96.37M289.742,141.221L298.301,141.221L306.719,107.867L319.186,128.131L341.509,107.867L333.503,141.217L341.888,141.221L352.926,96.161L343.541,96.161L322.015,116.048L310.344,96.161L300.944,96.165" style="fill:rgb(59,60,172);"/>
        <path id="path4" d="M79.471,45.813C78.848,46.219 75.291,45.12 74.53,44.713C72.578,43.67 71.347,42.714 70.155,43.485C69.532,43.888 67.689,45.589 67.274,45.813C66.115,46.436 64.976,51.518 64.695,51.725C63.755,52.419 53.942,92.882 53.744,93.644C53.547,94.405 53.155,95.878 52.874,96.916C52.011,100.102 48.416,113.702 47.45,117.432C46.948,119.371 46.136,122.486 45.644,124.355C45.153,126.224 44.547,128.603 44.297,129.641C44.047,130.68 43.723,131.982 43.576,132.536C43.08,134.41 43.173,134.795 43.99,134.24C44.371,133.982 44.965,133.632 45.312,133.463C45.658,133.294 46.394,132.881 46.948,132.547C47.502,132.212 48.408,131.704 48.962,131.42C50.377,130.691 51.065,130.024 52.479,128.005C53.159,127.036 53.782,126.186 53.866,126.117C53.949,126.048 54.564,125.312 55.231,124.481C59.511,119.151 140.706,79.222 140.489,80.819C140.285,82.32 121.314,67.087 115.058,64.202" style="fill:rgb(244,162,96);"/>
        <path id="path2" d="M76.225,41.032C74.125,40.134 72.307,39.905 70.526,40.043C63.433,40.595 62.788,44.253 61.146,48.081C60.864,48.737 36.97,137.672 36.929,137.902C34.655,150.622 42.476,155.645 42.761,155.821C43.029,155.987 110.918,189.702 111.459,189.956C117.103,192.604 120.055,192.677 122.215,189.956C129.235,181.115 148.49,94.144 148.823,93.082C150.286,88.423 149.134,84.453 148.135,83.575C147.951,83.413 148.135,83.575 148.135,83.575L131.271,83.575C131.271,83.575 131.558,83.534 131.271,83.575C128.672,83.951 86.755,97.386 79.715,103.401C79.609,103.492 130.392,103.401 130.392,103.401L127.02,117.306L76.294,117.306L71.479,136.848L133.649,136.848L130.855,150.998L53.551,150.998C53.551,150.998 61.923,118.098 61.714,118.227C58.182,120.407 45.878,131.802 43.576,134.453C43.348,134.715 43.391,134.453 43.391,134.453C43.391,134.453 43.254,133.751 43.576,132.536C43.723,131.982 44.047,130.68 44.297,129.641C44.547,128.603 45.161,126.196 45.661,124.292C46.161,122.388 64.297,54.061 64.557,53.241C66.357,47.569 68,45.881 70.526,45.414C72.146,45.115 75.959,46.325 75.959,46.325L122.215,69.143L131.905,69.27C130.827,68.527 76.225,41.032 76.225,41.032ZM160.016,120.076C160.311,120.248 141.473,136.359 141.473,136.359L141.473,138.157L150.75,138.157L163.77,126.452L170.454,138.157L180.113,138.157L180.113,136.359L170.422,120.076C170.422,120.076 186.984,104.545 187.094,103.838L187.094,101.955L179.664,101.955L166.669,113.721L159.471,101.955L149.871,101.955L149.871,103.838M191.945,110.258L219.588,110.258C219.588,110.258 220.923,110.293 221.115,110.75C221.49,111.642 220.387,116.174 220.387,116.174L190.435,116.174L187.094,131.42C187.094,131.42 187.39,129.325 187.094,131.42C186.419,136.205 189.008,137.358 191.583,138.157C191.982,138.281 191.583,138.157 191.583,138.157L223.741,138.157L230.334,109.755C230.334,109.755 230.536,109.21 230.585,108.496C230.693,106.917 231.233,102.047 225.337,101.955C225.314,101.955 225.337,101.955 225.337,101.955L193.994,101.955M216.792,130.145L195.788,130.145L197.442,124.355L218.25,124.355" style="fill:rgb(236,108,21);"/>
        <path id="path1" d="M73.863,68.347L53.515,151.074L130.9,151.21L134.353,136.738L71.513,136.738L76.294,117.306L127.021,117.306L130.406,103.398L79.719,103.398L84.967,83.563L149.784,83.563L151.618,69.352L73.863,68.347Z" style="fill:rgb(251,245,239);"/>
        <g transform="matrix(1.045,0,0,1,143.095,161.244)">
            <text x="0px" y="0px" style="font-family:'Arial-BoldItalicMT', 'Arial', sans-serif;font-weight:700;font-style:italic;font-size:24px;">sewing machine</text>
        </g>
    </g>
</svg>
