<?xml version="1.0" encoding="UTF-8" standalone="no"?>
<!DOCTYPE svg PUBLIC "-//W3C//DTD SVG 1.1//EN" "http://www.w3.org/Graphics/SVG/1.1/DTD/svg11.dtd">
<svg width="100%" height="100%" viewBox="0 0 400 83" version="1.1" xmlns="http://www.w3.org/2000/svg" xmlns:xlink="http://www.w3.org/1999/xlink" xml:space="preserve" xmlns:serif="http://www.serif.com/" style="fill-rule:evenodd;clip-rule:evenodd;stroke-linejoin:round;stroke-miterlimit:2;">
    <g transform="matrix(1,0,0,1,-1.09546,-0.986729)">
        <g id="svgg">
            <path id="path0" d="M53.646,5.901C52.643,6.141 47.545,5.987 44.333,11.625C43.436,13.199 41.29,18.183 40.248,23.5C40.076,24.379 35.35,45.217 35.167,45.75C34.64,47.281 34.827,47.552 35.889,46.792C36.176,46.585 38.026,45.092 47.693,40.403C55.867,36.438 57.987,36.074 58.55,35.925C59.607,35.644 59.712,35.476 59.797,34.833C59.827,34.604 62.854,21 62.854,21L101.926,21.422C101.919,21.425 105.5,6.022 105.5,5.896M229.909,6.201C228.877,6.381 227.64,6.836 227.62,6.844C227.196,7.007 226.51,7.297 226.277,7.404C224.835,8.068 223.977,8.868 223.15,9.692C222.006,10.83 221.575,11.752 221.403,12.051C221.142,12.504 220.657,13.487 220.496,13.837C220.399,14.049 220.406,14.057 220.331,14.275C219.988,15.268 219.302,17.52 219.254,17.773C219.222,17.945 219.116,18.301 219.035,18.756C218.741,20.405 218.026,20.495 230.246,20.167L241.659,20.167L229.533,76.5L249.484,76.5C249.484,76.5 261.974,20.426 261.917,20.334C261.85,20.226 284.902,20.083 284.902,20.083L288.043,5.829M307.25,20.833C301.982,20.988 300.998,21.232 299.417,21.422C299.052,21.466 297.597,21.694 296.619,21.851C295.675,22.003 295.097,22.12 294.333,22.279C293.498,22.452 290.764,23.203 290.288,23.335C286.826,24.294 286.234,24.564 282.708,26.435C280.281,27.723 275.088,32.409 273.986,33.764C272.302,35.834 272.03,36.241 270.88,39.375C270.838,39.489 265.121,61.697 265.072,62.044C264.633,65.184 265.572,67.77 267.508,69.756C269.607,71.909 270.585,72.456 273.458,73.886C275.568,74.936 278.304,75.577 280.124,75.793C280.899,75.885 293.901,76.391 296.917,76.148C300.042,75.896 302.124,75.456 302.708,75.319C306.58,74.412 309.173,73.436 312.397,71.563C314.933,70.089 315.243,70.307 318.437,67.406C320.846,65.219 321.386,64.542 322.833,62.889C323.586,62.029 325.167,59.56 325.167,59.361L325.167,59L318.437,59C311.948,59 311.733,58.983 311.731,59C311.716,59.122 310.672,60.306 308.396,61.386C306.971,62.062 306.055,62.386 305.08,62.722C304.088,63.064 303.395,63.284 302.25,63.574C300.599,63.993 299.666,64.19 297.833,64.3C295.955,64.412 294.655,64.508 292.587,64.226C290.713,63.97 290.614,63.905 289.75,63.605C288.83,63.286 287.832,62.454 287.639,62.17C287.537,62.021 287.44,61.855 287.375,61.7C287.215,61.32 287.188,60.315 287.408,59.578C287.617,58.876 287.81,58.622 288.258,58.175C289.701,56.735 291.36,55.861 293.251,55.493C295.703,55.015 297.238,54.897 298.939,54.742C307.198,53.989 309.125,53.551 310.627,53.321C313.862,52.826 316.118,52.311 319,51.427C319.94,51.139 321.505,50.635 322.237,50.319C324.152,49.492 325.834,48.441 326.123,48.257C326.727,47.873 328.427,47.009 330.188,44.522C330.694,43.808 331.028,43.252 331.716,41.815C331.937,41.353 332.298,40.059 332.424,39.758C332.55,39.456 333.205,37.263 333.232,36.708C333.242,36.502 333.895,34.277 333.472,30.75C333.406,30.201 333.205,29.395 333.02,28.956C332.182,26.965 331.981,26.559 330.738,25.208C330.032,24.441 329.371,23.868 328.072,23.253C327.265,22.871 326.293,22.51 325.57,22.262C325.15,22.118 324.872,22.036 324.336,21.918C323.925,21.827 323.064,21.594 322.165,21.438C320.883,21.215 319.571,21.029 317.444,20.911C315.74,20.817 311.95,20.695 307.25,20.833ZM105.703,20.958C105.738,21.027 120.342,48.71 120.342,48.71C120.342,48.71 93,76.485 93,76.55C93,76.614 113.5,76.603 113.5,76.521C113.5,76.299 127.32,62.274 127.373,62.273C127.404,62.273 135.188,76.667 135.188,76.667C135.188,76.667 155.333,76.612 155.333,76.492C155.333,76.2 140.871,48.895 140.816,48.869C140.716,48.822 168.167,21.011 168.167,20.918C168.167,20.871 147.949,20.833 147.949,20.833C147.949,20.833 133.72,35.333 133.588,35.333C133.539,35.333 126.083,20.853 126.083,20.853C126.083,20.853 105.668,20.89 105.703,20.958M193.986,21.169C190.913,21.531 186.099,22.794 183.833,23.583C182.227,24.142 180.092,24.974 177.25,26.715C172.236,29.786 168.723,33.444 166.962,35.566C166.736,35.838 165.275,37.676 165.083,38.167C164.822,38.837 165.064,38.666 171.542,38.661L178.25,38.656C178.984,38.065 181.069,36.284 185.037,35.017C190.964,33.125 200.481,32.656 202.55,35.31C203.144,36.072 203.011,37.922 202.73,38.42C202.377,39.043 202.291,39.121 201.947,39.419C201.604,39.717 201.143,40.064 200.965,40.208C200.748,40.385 199.815,40.922 199.356,41.089C198.094,41.55 197.87,41.573 197.583,41.651C195.414,42.235 193.106,42.527 191.083,42.671C187.796,42.903 179.939,43.979 176.917,44.61C173.199,45.386 171.066,45.973 168.385,46.997C167.885,47.189 166.804,47.689 166.083,48.076C164.049,49.167 163.159,50.031 162.958,50.171C162.561,50.446 158.875,54.166 157.808,57.75C155.272,66.273 157.191,72.668 164.333,75.358C167.333,76.487 175.508,76.782 179,76.343C185.116,75.574 186.496,74.909 188.996,73.875C190.982,73.054 192.95,71.863 195.29,70.232L195.663,69.961L195.447,76.667L218.454,76.667L218.564,75.733C218.667,74.856 218.645,74.773 218.198,74.358C217.467,73.679 217.123,72.712 217.203,71.563C217.272,70.572 217.41,69.932 218.039,67.667C218.23,66.979 223.809,43.392 223.983,42.75C225.28,37.99 225.582,33.314 224.679,31.167C223.485,28.328 222.898,27.594 220.75,25.704C218.299,23.548 212.816,21.785 208.101,21.322C203.772,20.897 202.703,20.838 199.667,20.859C197.802,20.872 195.381,21.004 193.986,21.169M334.478,21.125C334.564,21.285 348.935,48.656 349.048,48.845C349.324,49.306 321.667,76.404 321.667,76.468C321.666,76.797 341.568,76.494 341.925,76.159C342.117,75.978 342.57,75.541 342.841,75.319C343.51,74.774 355.788,62.156 355.935,62.099C356.124,62.027 363.678,76.347 363.592,76.486C363.48,76.667 383.462,76.354 383.696,76.34C383.786,76.335 383.79,76.35 383.73,76.245C383.73,76.244 369.5,49.305 369.382,49.26C368.809,49.04 396.5,21.038 396.5,20.965C396.5,20.893 376.587,20.833 376.587,20.833L362.05,35.496L354.25,20.836C354.25,20.836 334.33,20.849 334.478,21.125M97.493,29.559C97.332,29.517 97.111,29.541 96.893,29.559C92.488,29.924 90.765,30.423 86.541,31.354C83.507,32.023 77.123,33.522 76.59,33.664C71.304,35.074 71.23,34.975 65.534,36.911C60.661,38.567 60.565,38.606 55.262,40.749C52.962,41.678 52.935,41.697 49.592,43.263C47.416,44.282 47.077,44.377 44.333,45.728C44.274,45.757 40.617,47.719 40.496,47.833C40.375,47.948 35.103,51.033 34.865,51.254C34.627,51.475 31.461,53.361 31.179,53.598C30.897,53.835 28.211,55.591 27.855,55.839C27.262,56.253 25.453,57.457 24.049,58.51C21.557,60.38 21.605,60.36 19.451,62.062C17.61,63.516 17.618,63.534 16.404,64.581C15.352,65.488 15.32,65.522 14.413,66.333C13.661,67.004 13.237,67.387 12.179,68.333C11.588,68.862 10.553,69.805 9.672,70.583C9.097,71.091 8.152,71.965 7.658,72.414C7.467,72.587 6.654,73.329 6.568,73.416C6.387,73.599 4.468,75.419 4.534,75.517C4.559,75.555 7.207,73.701 7.582,73.467C7.957,73.233 12.917,70.079 13.167,69.911C13.21,69.882 16.396,67.936 17.083,67.578C17.771,67.219 20.689,65.545 21.386,65.215C21.847,64.997 23.926,63.828 24.983,63.298C27.966,61.802 28.652,61.424 31.69,60.104C32.345,59.819 33.454,59.349 33.845,59.196C35.541,58.533 35.849,58.393 37.836,57.697C38.828,57.35 39.348,57.165 40.496,56.779C42.247,56.189 42.956,55.983 44.518,55.493C48.435,54.263 50.74,53.673 52.326,53.253C54.278,52.736 56.789,52.149 58.627,51.76C60.856,51.288 66.133,50.343 67.167,50.18C69.79,49.766 70.602,49.599 74.236,49.167C78.182,48.698 78.317,48.8 83,48.585C84.053,48.537 88.317,48.52 90.028,48.513L93.14,48.5C93.14,48.5 97.459,30.078 97.493,29.957C97.536,29.807 97.56,29.577 97.493,29.559ZM306.833,33.574C307.154,33.646 307.492,33.721 307.583,33.741C307.931,33.818 309.14,34.592 309.484,35.167C310.082,36.169 310.123,36.622 310.067,37.272C309.871,39.542 308.545,40.193 307.728,40.749C306.8,41.382 305.979,41.686 304.904,42.075C302.421,42.974 301.761,43.053 298.939,43.858C296.894,44.441 293.256,45.22 291.944,45.598C290.725,45.949 290.716,45.924 291.069,44.374C291.23,43.664 291.366,42.92 291.414,42.729C292.488,38.484 293.819,37.358 294.667,36.637C297.447,34.276 299.259,33.94 300.417,33.764C304.369,33.164 305.954,33.379 306.833,33.574M199.284,52.595C199.05,54.866 197.233,58.698 195.796,60.417C194.987,61.385 194.161,62.004 193.25,62.45C189.922,64.079 185.016,64.591 182.379,63.458C181.473,63.068 179.592,62.422 180.611,59.405C181.003,58.244 182.108,56.989 183.886,56.168C188.19,54.18 194.322,53.008 194.494,52.977C195.285,52.835 197.792,52.165 198.25,51.996C199.407,51.569 199.391,51.56 199.284,52.595M54.074,55.951C53.401,55.535 50.581,55.924 41.846,59.222C37.35,60.92 37.317,61.014 32.036,63.776C30.926,64.356 30.914,64.344 30.346,66.778C30.265,67.125 28.898,73.048 28.357,75.517C28.215,76.164 28.13,76.574 28.14,76.584C28.187,76.631 40.081,76.669 54.571,76.669L80.917,76.668L82.417,76.238C83.242,76.002 84.217,75.664 84.583,75.487C84.95,75.31 85.311,75.166 85.386,75.166C85.461,75.166 85.768,74.979 86.069,74.75C86.369,74.521 86.663,74.333 86.722,74.333C87.715,74.333 92.146,68.693 92.164,67.406C92.166,67.309 92.319,66.915 92.505,66.53C92.69,66.145 92.91,65.474 92.993,65.039C93.075,64.604 93.254,63.799 93.39,63.249C93.865,61.325 94.01,60.621 93.945,60.556C93.908,60.519 84.873,60.493 73.867,60.497L53.855,60.505L54.169,59.408C54.342,58.804 54.526,58.034 54.578,57.697C54.63,57.359 54.934,56.483 54.074,55.951Z" style="fill:rgb(4,148,220);"/>
        </g>
    </g>
</svg>
